<svg xmlns="http://www.w3.org/2000/svg" width="18.937" height="18.94" viewBox="0 0 18.937 18.94">
  <g id="Group_1287" data-name="Group 1287" transform="translate(3.5 3.5)">
    <g id="Group_1114" data-name="Group 1114" transform="translate(0 0)">
      <g id="magnifying-glass_1_" data-name="magnifying-glass (1)" transform="translate(0 0)">
        <path id="Path_218" data-name="Path 218" d="M11.884,11.331l-2.9-2.9a5.095,5.095,0,1,0-.5.5l2.9,2.9a.36.36,0,0,0,.251.106.349.349,0,0,0,.251-.106A.358.358,0,0,0,11.884,11.331ZM.762,5.091A4.376,4.376,0,1,1,5.138,9.47,4.381,4.381,0,0,1,.762,5.091Z" transform="translate(-0.05)" fill="#0357a8" stroke="#0357a8" stroke-width="1"/>
      </g>
      <g id="magnifying-glass_1_2" data-name="magnifying-glass (1)" transform="translate(0)">
        <path id="Path_218-2" data-name="Path 218" d="M11.884,11.331l-2.9-2.9a5.095,5.095,0,1,0-.5.5l2.9,2.9a.36.36,0,0,0,.251.106.349.349,0,0,0,.251-.106A.358.358,0,0,0,11.884,11.331ZM.762,5.091A4.381,4.381,0,0,1,5.138.715c2.414,0-3.949-.737-3.949,4.376S7.553,9.47,5.138,9.47A4.383,4.383,0,0,1,.762,5.091Z" transform="translate(-0.05)" fill="#0357a8" stroke="#0357a8" stroke-width="1"/>
      </g>
    </g>
    <ellipse id="Ellipse_43" data-name="Ellipse 43" cx="1.333" cy="1.333" rx="1.333" ry="1.333" transform="translate(3.695 1.333)" fill="#fff"/>
    <path id="Path_220" data-name="Path 220" d="M2.838,0C4.36,0,6,2,5.31,2.667s-4.207.667-4.9,0S1.317,0,2.838,0Z" transform="translate(2.174 4.667)" fill="#fff"/>
  </g>
</svg>
