<svg xmlns="http://www.w3.org/2000/svg" width="17.937" height="17.94" viewBox="0 0 17.937 17.94">
  <g id="Group_1286" data-name="Group 1286" transform="translate(3 3)" opacity="0.89">
    <g id="magnifying-glass_1_" data-name="magnifying-glass (1)" transform="translate(0 0)" opacity="0.58">
      <path id="Path_218" data-name="Path 218" d="M11.884,11.331l-2.9-2.9a5.095,5.095,0,1,0-.5.5l2.9,2.9a.36.36,0,0,0,.251.106.349.349,0,0,0,.251-.106A.358.358,0,0,0,11.884,11.331ZM.762,5.091A4.376,4.376,0,1,1,5.138,9.47,4.381,4.381,0,0,1,.762,5.091Z" transform="translate(-0.05)" fill="#0357a8"/>
    </g>
    <g id="magnifying-glass_1_2" data-name="magnifying-glass (1)" transform="translate(0 0)">
      <path id="Path_218-2" data-name="Path 218" d="M11.884,11.331l-2.9-2.9a5.095,5.095,0,1,0-.5.5l2.9,2.9a.36.36,0,0,0,.251.106.349.349,0,0,0,.251-.106A.358.358,0,0,0,11.884,11.331ZM.762,5.091A4.376,4.376,0,1,1,5.138,9.47,4.381,4.381,0,0,1,.762,5.091Z" transform="translate(-0.05)" fill="#0357a8" stroke="#0357a8" stroke-width="1"/>
    </g>
  </g>
</svg>
