<svg xmlns="http://www.w3.org/2000/svg" width="43.472" height="42.406" viewBox="0 0 43.472 42.406">
  <g id="Group_1282" data-name="Group 1282" transform="translate(-3714 1020)">
    <path id="Path_154" data-name="Path 154" d="M94.079,20.328a20.7,20.7,0,0,1-.118,2.208q-.058.542-.144,1.076-.038.236-.082.471a20.3,20.3,0,0,1-1.405,4.55q-.168.381-.352.753-.163.332-.338.657c-.02.037-.04.074-.06.11-.137.253-.282.5-.43.748a20.081,20.081,0,0,1-1.156,1.715l0,0q-.36.478-.746.933a20.254,20.254,0,0,1-1.678,1.755q-.7.648-1.454,1.228a19.916,19.916,0,0,1-24.443-.14,20.381,20.381,0,0,1-2.485-2.313q-.192-.211-.377-.426-.486-.566-.929-1.166l-.017-.023A20.244,20.244,0,0,1,56.2,29.794q-.331-.636-.619-1.3-.119-.275-.231-.553-.238-.593-.438-1.2c-.034-.1-.067-.206-.1-.31L54.8,26.4a20.535,20.535,0,0,1-.912-6.072q0-.685.045-1.359A20.194,20.194,0,0,1,73.9,0h.185l.278,0c.1,0,.206,0,.308.009l.053,0A19.938,19.938,0,0,1,88.624,6.4a20.356,20.356,0,0,1,5.322,11.578q.081.713.113,1.44Q94.079,19.872,94.079,20.328Z" transform="translate(3663.393 -1018.249)" fill="#d2edff"/>
    <path id="Path_165" data-name="Path 165" d="M14.354,0A14.438,14.438,0,0,1,28.709,14.52,14.438,14.438,0,0,1,14.354,29.04,14.438,14.438,0,0,1,0,14.52,14.438,14.438,0,0,1,14.354,0Z" transform="translate(3723.128 -1018.249)" fill="#bfe0f6"/>
    <path id="Path_448" data-name="Path 448" d="M389.4,91.816V76.639l13.178-7.029V84.787Z" transform="translate(3348.135 -1075.695)" fill="#f93"/>
    <path id="Path_449" data-name="Path 449" d="M389.8,91.239l12.424-6.628V70.288L389.8,76.915Z" transform="translate(3348.105 -1075.745)" fill="#fc9"/>
    <path id="Path_450" data-name="Path 450" d="M375.167,84.787V69.61l13.178,7.029V91.816Z" transform="translate(3349.185 -1075.695)" fill="#f93"/>
    <path id="Path_451" data-name="Path 451" d="M388,91.239V76.915l-12.425-6.627V84.611Z" transform="translate(3349.155 -1075.745)" fill="#fc9"/>
    <path id="Path_452" data-name="Path 452" d="M388.345,62.019l13.178,7.029v0l-13.178,7.029-13.178-7.029v0Z" transform="translate(3349.185 -1075.134)" fill="#fc9"/>
    <path id="Path_453" data-name="Path 453" d="M388.423,75.606l12.212-6.514-12.212-6.515L376.21,69.092Z" transform="translate(3349.108 -1075.176)" fill="#f93"/>
    <path id="Path_454" data-name="Path 454" d="M393.924,73.532l3.194-1.7-13.027-7.114-3.171,1.692Z" transform="translate(3348.76 -1075.333)" fill="#666"/>
    <path id="Path_455" data-name="Path 455" d="M399.045,86.057a.908.908,0,0,0,.358-.424,1.547,1.547,0,0,0,.148-.646V84.03l.125-.066.124-.067v.957a.717.717,0,0,0,.148.486.281.281,0,0,0,.358.044l.023-.013v.115l-.654.349-.655.349V86.07Z" transform="translate(3347.425 -1076.749)" fill="#333"/>
    <path id="Path_456" data-name="Path 456" d="M399.728,83.72l0,0,0,0h0Z" transform="translate(3347.373 -1076.736)" fill="#333"/>
    <path id="Path_457" data-name="Path 457" d="M399.661,80.514l.845-.45v1.6a2.59,2.59,0,0,1-.248,1.08,1.539,1.539,0,0,1-.6.709.469.469,0,0,1-.6-.073,1.2,1.2,0,0,1-.247-.815v-1.6Z" transform="translate(3347.44 -1076.466)" fill="#333"/>
    <path id="Path_458" data-name="Path 458" d="M398.105,82.825l-.594-1.118-.594,1.751Z" transform="translate(3347.58 -1076.587)" fill="#333"/>
    <path id="Path_459" data-name="Path 459" d="M397.548,83.581l.133-.071v2.566l-.133.071-.132.071V83.652Z" transform="translate(3347.543 -1076.72)" fill="#333"/>
    <path id="Path_460" data-name="Path 460" d="M396.66,83.6l-.594-1.117-.594,1.751Z" transform="translate(3347.687 -1076.644)" fill="#333"/>
    <path id="Path_461" data-name="Path 461" d="M396.1,84.353l.132-.07v2.566l-.132.07-.132.071V84.423Z" transform="translate(3347.65 -1076.777)" fill="#333"/>
    <path id="Path_462" data-name="Path 462" d="M395.685,87.816v-.21l2.085-1.112v.418l-2.085,1.112Z" transform="translate(3347.671 -1076.94)" fill="#333"/>
    <path id="Path_463" data-name="Path 463" d="M392.615,85.707a.565.565,0,0,0-.237.278c.571-2.415,2.163-3.263,2.735-1.459a.176.176,0,0,0-.237-.025.6.6,0,0,0-.283.48c0-.182-.126-.262-.283-.179a.6.6,0,0,0-.282.481c0-.182-.126-.262-.283-.179a.594.594,0,0,0-.282.48c0-.182-.126-.262-.283-.179a.6.6,0,0,0-.283.48C392.9,85.7,392.772,85.623,392.615,85.707Z" transform="translate(3347.915 -1076.724)" fill="#333"/>
    <path id="Path_464" data-name="Path 464" d="M393.846,85.7l.1-.051v2.567s0,.35.273.2c.208-.111.232-.474.232-.474l.194-.1s-.061.634-.412.821c-.478.256-.478-.345-.478-.345V85.75Z" transform="translate(3347.814 -1076.878)" fill="#333"/>
    <path id="Path_465" data-name="Path 465" d="M394.96,74.1v3.483l.623-.839.477.238.5-.46.568-.121.552-.717.477.156V72.394Z" transform="translate(3347.725 -1075.9)" fill="#666"/>
    <rect id="Rectangle_688" data-name="Rectangle 688" width="22.746" height="18.265" rx="1.733" transform="translate(3732.265 -1017.12) rotate(90)" fill="#666"/>
    <path id="Rectangle_689" data-name="Rectangle 689" d="M.879,0H20.285a.879.879,0,0,1,.879.879V15.8a.879.879,0,0,1-.879.879H.88A.88.88,0,0,1,0,15.8V.879A.879.879,0,0,1,.879,0Z" transform="translate(3731.475 -1016.329) rotate(90)" fill="#fff"/>
    <path id="Path_466" data-name="Path 466" d="M374.7,70.713l-.209-1.161a4.536,4.536,0,0,0,1.872-2.2l1.18.019.259-1.423-1.113-.4a4.565,4.565,0,0,0-.969-2.725l.6-1.01-1.1-.935-.9.759a4.568,4.568,0,0,0-2.846-.514l-.574-1.034-1.362.486.209,1.161a4.519,4.519,0,0,0-1.872,2.2l-1.18-.019-.259,1.423,1.113.4a4.565,4.565,0,0,0,.969,2.725l-.6,1.01,1.1.936.9-.76a4.561,4.561,0,0,0,2.845.515l.575,1.033Zm-4.651-2.63a3.2,3.2,0,1,1,4.512-.368A3.2,3.2,0,0,1,370.046,68.083Z" transform="translate(3349.829 -1074.992)" fill="#0357a8"/>
    <path id="Path_467" data-name="Path 467" d="M378.415,73.6l.174-.457a1.86,1.86,0,0,0,1.135-.38l.414.259.4-.448-.308-.38a1.893,1.893,0,0,0,.24-1.173l.431-.229-.191-.567-.481.077a1.885,1.885,0,0,0-.9-.792l.018-.489-.587-.119-.174.456a1.874,1.874,0,0,0-1.135.381l-.414-.259-.4.448.309.38a1.886,1.886,0,0,0-.241,1.173l-.43.228.19.568.481-.077a1.894,1.894,0,0,0,.9.791l-.018.489Zm-.895-1.99a1.125,1.125,0,1,1,1.424.709A1.125,1.125,0,0,1,377.52,71.613Z" transform="translate(3349.103 -1075.643)" fill="#5edfff"/>
    <path id="Path_468" data-name="Path 468" d="M370.959,78.843l.563-.49a2.922,2.922,0,0,0,.878.3,2.885,2.885,0,0,0,.927,0l.371.647.858-.32-.143-.734a2.882,2.882,0,0,0,1.168-1.41l.745,0,.152-.9-.7-.243a2.883,2.883,0,0,0-.642-1.714l.376-.646-.706-.584-.563.49a2.864,2.864,0,0,0-1.805-.3l-.371-.647-.858.32.143.734a2.884,2.884,0,0,0-1.168,1.409l-.745,0-.152.9.7.242a2.89,2.89,0,0,0,.642,1.714l-.376.647Zm.617-3.265a1.323,1.323,0,1,1,1.086,1.525A1.324,1.324,0,0,1,371.575,75.578Z" transform="translate(3349.619 -1075.892)" fill="#0357a8"/>
    <path id="Path_469" data-name="Path 469" d="M373.587,66.931a1.489,1.489,0,1,1-.171-2.1A1.489,1.489,0,0,1,373.587,66.931Z" transform="translate(3349.495 -1075.316)" fill="#5edfff"/>
    <path id="Path_470" data-name="Path 470" d="M377.275,57.328v.93h-7.443v-.93a1.584,1.584,0,0,1,1.584-1.584h.98a1.158,1.158,0,0,1,2.316,0h.98A1.584,1.584,0,0,1,377.275,57.328Zm-3.722-2.172a.588.588,0,1,0,.588.588A.588.588,0,0,0,373.554,55.156Z" transform="translate(3349.579 -1074.586)" fill="#f93"/>
  </g>
</svg>
