<svg xmlns="http://www.w3.org/2000/svg" width="44.977" height="42.843" viewBox="0 0 44.977 42.843">
  <g id="Group_1284" data-name="Group 1284" transform="translate(-3479.999 1020)">
    <path id="Path_154" data-name="Path 154" d="M94.079,20.328a20.7,20.7,0,0,1-.118,2.208q-.058.542-.144,1.076-.038.236-.082.471a20.3,20.3,0,0,1-1.405,4.55q-.168.381-.352.753-.163.332-.338.657c-.02.037-.04.074-.06.11-.137.253-.282.5-.43.748a20.081,20.081,0,0,1-1.156,1.715l0,0q-.36.478-.746.933a20.254,20.254,0,0,1-1.678,1.755q-.7.648-1.454,1.228a19.916,19.916,0,0,1-24.443-.14,20.381,20.381,0,0,1-2.485-2.313q-.192-.211-.377-.426-.486-.566-.929-1.166l-.017-.023A20.244,20.244,0,0,1,56.2,29.794q-.331-.636-.619-1.3-.119-.275-.231-.553-.238-.593-.438-1.2c-.034-.1-.067-.206-.1-.31L54.8,26.4a20.535,20.535,0,0,1-.912-6.072q0-.685.045-1.359A20.194,20.194,0,0,1,73.9,0h.185l.278,0c.1,0,.206,0,.308.009l.053,0A19.938,19.938,0,0,1,88.624,6.4a20.356,20.356,0,0,1,5.322,11.578q.081.713.113,1.44Q94.079,19.872,94.079,20.328Z" transform="translate(3430.897 -1017.813)" fill="#d2edff"/>
    <path id="Path_165" data-name="Path 165" d="M14.354,0A14.438,14.438,0,0,1,28.709,14.52,14.438,14.438,0,0,1,14.354,29.04,14.438,14.438,0,0,1,0,14.52,14.438,14.438,0,0,1,14.354,0Z" transform="translate(3490.632 -1017.813)" fill="#bfe0f6"/>
    <path id="Path_308" data-name="Path 308" d="M311.063,92.19V76.758l13.4-7.147V85.043Z" transform="translate(3192.863 -1075.46)" fill="#f93"/>
    <path id="Path_309" data-name="Path 309" d="M311.47,91.592,324.1,84.852V70.288L311.47,77.027Z" transform="translate(3192.839 -1075.5)" fill="#fc9"/>
    <path id="Path_310" data-name="Path 310" d="M296.835,85.043V69.61l13.4,7.147V92.19Z" transform="translate(3193.691 -1075.46)" fill="#f93"/>
    <path id="Path_311" data-name="Path 311" d="M309.877,91.592V77.027l-12.634-6.738V84.852Z" transform="translate(3193.667 -1075.5)" fill="#fc9"/>
    <path id="Path_312" data-name="Path 312" d="M310.235,62.019l13.4,7.148v0l-13.4,7.148-13.4-7.148v0Z" transform="translate(3193.691 -1075.018)" fill="#fc9"/>
    <path id="Path_313" data-name="Path 313" d="M310.3,75.826,322.714,69.2,310.3,62.576,297.878,69.2Z" transform="translate(3193.63 -1075.051)" fill="#f93"/>
    <path id="Path_314" data-name="Path 314" d="M315.811,73.68l3.247-1.733-13.247-7.234-3.225,1.72Z" transform="translate(3193.356 -1075.175)" fill="#666"/>
    <path id="Path_315" data-name="Path 315" d="M320.714,86.093a.923.923,0,0,0,.363-.431,1.573,1.573,0,0,0,.151-.656v-.973l.127-.067.126-.068v.973a.729.729,0,0,0,.151.494.286.286,0,0,0,.365.044l.024-.013v.117l-.665.355-.666.355v-.117Z" transform="translate(3192.303 -1076.292)" fill="#333"/>
    <path id="Path_316" data-name="Path 316" d="M321.4,83.72l0,0,0,0h0Z" transform="translate(3192.262 -1076.281)" fill="#333"/>
    <path id="Path_317" data-name="Path 317" d="M321.343,80.522l.859-.458v1.623a2.634,2.634,0,0,1-.252,1.1,1.565,1.565,0,0,1-.607.721.477.477,0,0,1-.607-.074,1.219,1.219,0,0,1-.251-.829V80.979Z" transform="translate(3192.315 -1076.068)" fill="#333"/>
    <path id="Path_318" data-name="Path 318" d="M319.793,82.843l-.6-1.136-.6,1.781Z" transform="translate(3192.425 -1076.164)" fill="#333"/>
    <path id="Path_319" data-name="Path 319" d="M319.219,83.583l.135-.072v2.61l-.135.072-.134.072v-2.61Z" transform="translate(3192.396 -1076.269)" fill="#333"/>
    <path id="Path_320" data-name="Path 320" d="M318.348,83.615l-.6-1.136-.6,1.781Z" transform="translate(3192.509 -1076.209)" fill="#333"/>
    <path id="Path_321" data-name="Path 321" d="M317.773,84.354l.134-.072v2.61l-.134.072-.134.072v-2.61Z" transform="translate(3192.48 -1076.314)" fill="#333"/>
    <path id="Path_322" data-name="Path 322" d="M317.353,87.838v-.213l2.12-1.131v.425l-2.12,1.131Z" transform="translate(3192.497 -1076.443)" fill="#333"/>
    <path id="Path_323" data-name="Path 323" d="M314.287,85.743a.575.575,0,0,0-.241.283c.581-2.455,2.2-3.318,2.781-1.483a.179.179,0,0,0-.241-.025A.6.6,0,0,0,316.3,85c0-.185-.128-.267-.287-.182a.607.607,0,0,0-.287.489c0-.186-.128-.267-.287-.182a.6.6,0,0,0-.287.488c0-.186-.128-.267-.287-.182a.606.606,0,0,0-.287.488C314.574,85.739,314.446,85.658,314.287,85.743Z" transform="translate(3192.689 -1076.272)" fill="#333"/>
    <path id="Path_324" data-name="Path 324" d="M315.516,85.7l.1-.052v2.61s0,.356.278.208c.212-.113.235-.482.235-.482l.2-.105s-.062.644-.419.834c-.486.26-.486-.351-.486-.351v-2.61Z" transform="translate(3192.609 -1076.393)" fill="#333"/>
    <path id="Path_325" data-name="Path 325" d="M316.628,74.127V77.67l.634-.853.485.242.5-.468.578-.123.561-.729.485.158v-3.5Z" transform="translate(3192.539 -1075.622)" fill="#666"/>
    <rect id="Rectangle_675" data-name="Rectangle 675" width="25.436" height="18.573" rx="1.733" transform="translate(3498.572 -1017.071) rotate(90)" fill="#666"/>
    <path id="Rectangle_676" data-name="Rectangle 676" d="M.879,0h22.07a.879.879,0,0,1,.879.879V16.086a.879.879,0,0,1-.879.879H.88a.88.88,0,0,1-.88-.88V.879A.879.879,0,0,1,.879,0Z" transform="translate(3497.768 -1016.267) rotate(90)" fill="#fff"/>
    <rect id="Rectangle_677" data-name="Rectangle 677" width="10.271" height="0.797" transform="translate(3486.325 -1010.221)" fill="#0357a8"/>
    <rect id="Rectangle_678" data-name="Rectangle 678" width="10.271" height="0.797" transform="translate(3486.325 -1013.398)" fill="#0357a8"/>
    <rect id="Rectangle_679" data-name="Rectangle 679" width="10.271" height="0.797" transform="translate(3486.325 -1007.043)" fill="#0357a8"/>
    <rect id="Rectangle_680" data-name="Rectangle 680" width="10.271" height="0.797" transform="translate(3486.325 -1003.865)" fill="#0357a8"/>
    <rect id="Rectangle_690" data-name="Rectangle 690" width="8.938" height="0.797" transform="translate(3482.325 -998.505)" fill="#0357a8"/>
    <path id="Path_326" data-name="Path 326" d="M290.554,71.117a.293.293,0,1,0-.43-.4l-.849.923-.577-.586a.292.292,0,0,0-.416.411l1.008,1.023Z" transform="translate(3194.193 -1075.519)" fill="#11e4ea"/>
    <path id="Path_327" data-name="Path 327" d="M290.554,64.326a.292.292,0,1,0-.43-.4l-.849.922-.577-.586a.292.292,0,0,0-.416.411L289.29,65.7Z" transform="translate(3194.193 -1075.124)" fill="#11e4ea"/>
    <path id="Path_328" data-name="Path 328" d="M290.554,60.952a.292.292,0,1,0-.43-.4l-.849.922-.577-.586a.292.292,0,0,0-.416.411l1.008,1.024Z" transform="translate(3194.193 -1074.928)" fill="#11e4ea"/>
    <path id="Path_329" data-name="Path 329" d="M299.068,57.374v.946H291.5v-.946a1.611,1.611,0,0,1,1.611-1.611h1a1.178,1.178,0,0,1,2.355,0h1A1.61,1.61,0,0,1,299.068,57.374Zm-3.784-2.209a.6.6,0,1,0,.6.6A.6.6,0,0,0,295.284,55.165Z" transform="translate(3194.001 -1074.586)" fill="#f93"/>
    <path id="Path_330" data-name="Path 330" d="M290.394,68.915a.255.255,0,0,1-.181-.074l-.643-.644-.644.644a.255.255,0,0,1-.36,0,.258.258,0,0,1-.075-.181.254.254,0,0,1,.075-.18l.643-.644-.643-.643a.255.255,0,0,1,.18-.435.25.25,0,0,1,.18.074l.644.644.643-.644a.255.255,0,0,1,.361.361l-.643.643.643.644a.253.253,0,0,1,.074.18.254.254,0,0,1-.254.255Z" transform="translate(3194.176 -1075.294)" fill="#f63"/>
    <path id="Path_391" data-name="Path 391" d="M318.517,160.566c0-1.061-.631-1.488-1.637-1.814-.9-.291-1.106-.453-1.106-.846s.325-.616.807-.616a1.717,1.717,0,0,1,1.214.487l.565-.676a2.411,2.411,0,0,0-1.363-.684v-1.265h-.881v1.257a1.62,1.62,0,0,0-1.546,1.583c0,.856.474,1.351,1.67,1.736.839.265,1.064.462,1.064.915,0,.5-.39.779-.956.779a1.967,1.967,0,0,1-1.4-.573l-.614.684a2.671,2.671,0,0,0,1.779.8v1.283H317v-1.334A1.71,1.71,0,0,0,318.517,160.566Z" transform="translate(3178.258 -1157.096)" fill="#f93"/>
  </g>
</svg>
