<svg xmlns="http://www.w3.org/2000/svg" width="40.191" height="40.655" viewBox="0 0 40.191 40.655">
  <g id="Group_1283" data-name="Group 1283" transform="translate(-3600 1019)">
    <path id="Path_154" data-name="Path 154" d="M94.079,20.328a20.7,20.7,0,0,1-.118,2.208q-.058.542-.144,1.076-.038.236-.082.471a20.3,20.3,0,0,1-1.405,4.55q-.168.381-.352.753-.163.332-.338.657c-.02.037-.04.074-.06.11-.137.253-.282.5-.43.748a20.081,20.081,0,0,1-1.156,1.715l0,0q-.36.478-.746.933a20.254,20.254,0,0,1-1.678,1.755q-.7.648-1.454,1.228a19.916,19.916,0,0,1-24.443-.14,20.381,20.381,0,0,1-2.485-2.313q-.192-.211-.377-.426-.486-.566-.929-1.166l-.017-.023A20.244,20.244,0,0,1,56.2,29.794q-.331-.636-.619-1.3-.119-.275-.231-.553-.238-.593-.438-1.2c-.034-.1-.067-.206-.1-.31L54.8,26.4a20.535,20.535,0,0,1-.912-6.072q0-.685.045-1.359A20.194,20.194,0,0,1,73.9,0h.185l.278,0c.1,0,.206,0,.308.009l.053,0A19.938,19.938,0,0,1,88.624,6.4a20.356,20.356,0,0,1,5.322,11.578q.081.713.113,1.44Q94.079,19.872,94.079,20.328Z" transform="translate(3546.113 -1019)" fill="#d2edff"/>
    <path id="Path_165" data-name="Path 165" d="M14.354,0A14.438,14.438,0,0,1,28.709,14.52,14.438,14.438,0,0,1,14.354,29.04,14.438,14.438,0,0,1,0,14.52,14.438,14.438,0,0,1,14.354,0Z" transform="translate(3605.848 -1019)" fill="#bfe0f6"/>
    <path id="Path_352" data-name="Path 352" d="M85.864,142.239l-19.092-9.253-19.092,9.253.807,1.665,1.794-.87V166.8h1.642V142.238l14.849-7.2,15.019,7.279V166.8h1.642V143.117l1.624.787Z" transform="translate(3553.652 -1151.443)" fill="#0357a8"/>
    <path id="Path_353" data-name="Path 353" d="M69.7,165.345v-10.4l9.026-4.814v10.4Z" transform="translate(3555.316 -1151.679)" fill="#f93"/>
    <path id="Path_354" data-name="Path 354" d="M70.071,165.1l8.51-4.539v-9.81l-8.51,4.539Z" transform="translate(3555.204 -1151.867)" fill="#fc9"/>
    <path id="Path_355" data-name="Path 355" d="M56.734,160.531v-10.4l9.026,4.814v10.4Z" transform="translate(3559.257 -1151.679)" fill="#f93"/>
    <path id="Path_356" data-name="Path 356" d="M65.615,165.1v-9.811l-8.51-4.539v9.81Z" transform="translate(3559.145 -1151.867)" fill="#fc9"/>
    <path id="Path_357" data-name="Path 357" d="M65.76,143.217l9.026,4.814v0l-9.026,4.814-9.026-4.814v0Z" transform="translate(3559.257 -1149.576)" fill="#fc9"/>
    <path id="Path_358" data-name="Path 358" d="M66.049,152.649l8.365-4.462-8.365-4.462-8.365,4.462Z" transform="translate(3558.969 -1149.731)" fill="#f93"/>
    <path id="Path_359" data-name="Path 359" d="M70.883,151.713l2.187-1.167-8.923-4.873-2.172,1.159Z" transform="translate(3557.664 -1150.323)" fill="#666"/>
    <path id="Path_360" data-name="Path 360" d="M78.49,164.636a.63.63,0,0,0,.245-.291,1.066,1.066,0,0,0,.1-.442v-.655l.085-.046.086-.045v.655a.49.49,0,0,0,.1.333.192.192,0,0,0,.245.03l.016-.008v.078l-.448.239-.448.239v-.079Z" transform="translate(3552.65 -1155.637)" fill="#333"/>
    <path id="Path_361" data-name="Path 361" d="M79.117,162.994h0Z" transform="translate(3552.456 -1155.587)" fill="#333"/>
    <path id="Path_362" data-name="Path 362" d="M78.864,159.971l.579-.309v1.094a1.774,1.774,0,0,1-.171.739,1.048,1.048,0,0,1-.409.487.321.321,0,0,1-.409-.05.822.822,0,0,1-.17-.558v-1.094Z" transform="translate(3552.708 -1154.574)" fill="#333"/>
    <path id="Path_363" data-name="Path 363" d="M77.37,161.926l-.407-.766-.407,1.2Z" transform="translate(3553.233 -1155.03)" fill="#333"/>
    <path id="Path_364" data-name="Path 364" d="M77.1,162.853l.091-.048v1.758l-.091.049-.091.048V162.9Z" transform="translate(3553.095 -1155.529)" fill="#333"/>
    <path id="Path_365" data-name="Path 365" d="M76.052,162.629l-.407-.765-.407,1.2Z" transform="translate(3553.634 -1155.244)" fill="#333"/>
    <path id="Path_366" data-name="Path 366" d="M75.783,163.556l.091-.048v1.758l-.091.048-.091.048V163.6Z" transform="translate(3553.496 -1155.743)" fill="#333"/>
    <path id="Path_367" data-name="Path 367" d="M75.433,166.428v-.144l1.428-.762v.286l-1.428.762Z" transform="translate(3553.574 -1156.356)" fill="#333"/>
    <path id="Path_368" data-name="Path 368" d="M72.581,164.318a.4.4,0,0,0-.162.191c.392-1.654,1.481-2.235,1.873-1a.12.12,0,0,0-.162-.017.407.407,0,0,0-.194.329c0-.125-.086-.18-.194-.122a.409.409,0,0,0-.194.329c0-.125-.086-.18-.193-.123a.406.406,0,0,0-.194.329c0-.125-.087-.179-.194-.122a.407.407,0,0,0-.193.329C72.775,164.316,72.688,164.261,72.581,164.318Z" transform="translate(3554.49 -1155.542)" fill="#333"/>
    <path id="Path_369" data-name="Path 369" d="M73.736,164.787l.065-.035v1.758s0,.24.187.14c.143-.076.159-.324.159-.324l.132-.071s-.042.434-.282.562c-.328.175-.328-.237-.328-.237v-1.758Z" transform="translate(3554.11 -1156.121)" fill="#333"/>
    <path id="Path_370" data-name="Path 370" d="M59.675,160.16l-1.456-.776v.323l1.456.777Z" transform="translate(3558.806 -1154.49)" fill="#333"/>
    <path id="Path_371" data-name="Path 371" d="M59.675,159.255l-1.456-.776v.106l1.456.776Z" transform="translate(3558.806 -1154.215)" fill="#333"/>
    <path id="Path_372" data-name="Path 372" d="M59.7,161.659l-1.484-.791v.107l1.484.791Z" transform="translate(3558.806 -1154.941)" fill="#333"/>
    <path id="Path_373" data-name="Path 373" d="M59.675,158.435l-1.456-.776v.237l1.456.776Z" transform="translate(3558.806 -1153.966)" fill="#333"/>
    <path id="Path_374" data-name="Path 374" d="M59.675,163.268l-1.456-.776v.176l1.456.776Z" transform="translate(3558.806 -1155.435)" fill="#333"/>
    <path id="Path_375" data-name="Path 375" d="M59.675,162.5l-1.456-.776v.177l1.456.776Z" transform="translate(3558.806 -1155.201)" fill="#333"/>
    <path id="Path_376" data-name="Path 376" d="M59.675,156.875,58.22,156.1v.277l1.456.776Z" transform="translate(3558.806 -1153.491)" fill="#333"/>
    <path id="Path_377" data-name="Path 377" d="M58.22,155.359l1.956,1.044v-.532l-1.956-1.043Z" transform="translate(3558.806 -1153.105)" fill="#333"/>
    <path id="Path_378" data-name="Path 378" d="M58.22,157.078l1.956,1.044v-.177L58.22,156.9Z" transform="translate(3558.806 -1153.736)" fill="#333"/>
    <path id="Path_379" data-name="Path 379" d="M58.22,160.384l1.956,1.044v-.106l-1.956-1.043Z" transform="translate(3558.806 -1154.762)" fill="#333"/>
    <path id="Path_380" data-name="Path 380" d="M58.22,163.619l1.956,1.043v-.106l-1.956-1.043Z" transform="translate(3558.806 -1155.745)" fill="#333"/>
    <path id="Path_381" data-name="Path 381" d="M74.772,153.84v2.386l.427-.574.327.163.34-.315.389-.083.378-.491.326.107v-2.36Z" transform="translate(3553.775 -1152.45)" fill="#666"/>
    <path id="Path_353-2" data-name="Path 353" d="M69.7,165.345v-10.4l9.026-4.814v10.4Z" transform="translate(3545.993 -1146.659)" fill="#f93"/>
    <path id="Path_354-2" data-name="Path 354" d="M70.071,165.1l8.51-4.539v-9.81l-8.51,4.539Z" transform="translate(3545.88 -1146.846)" fill="#fc9"/>
    <path id="Path_355-2" data-name="Path 355" d="M56.734,160.531v-10.4l9.026,4.814v10.4Z" transform="translate(3549.933 -1146.659)" fill="#f93"/>
    <path id="Path_356-2" data-name="Path 356" d="M65.615,165.1v-9.811l-8.51-4.539v9.81Z" transform="translate(3549.821 -1146.846)" fill="#fc9"/>
    <path id="Path_357-2" data-name="Path 357" d="M65.76,143.217l9.026,4.814v0l-9.026,4.814-9.026-4.814v0Z" transform="translate(3549.933 -1144.556)" fill="#fc9"/>
    <path id="Path_358-2" data-name="Path 358" d="M66.049,152.649l8.365-4.462-8.365-4.462-8.365,4.462Z" transform="translate(3549.645 -1144.71)" fill="#f93"/>
    <path id="Path_359-2" data-name="Path 359" d="M70.883,151.713l2.187-1.167-8.923-4.873-2.172,1.159Z" transform="translate(3548.34 -1145.302)" fill="#666"/>
    <path id="Path_360-2" data-name="Path 360" d="M78.49,164.636a.63.63,0,0,0,.245-.291,1.066,1.066,0,0,0,.1-.442v-.655l.085-.046.086-.045v.655a.49.49,0,0,0,.1.333.192.192,0,0,0,.245.03l.016-.008v.078l-.448.239-.448.239v-.079Z" transform="translate(3543.326 -1150.616)" fill="#333"/>
    <path id="Path_361-2" data-name="Path 361" d="M79.117,162.994h0Z" transform="translate(3543.132 -1150.566)" fill="#333"/>
    <path id="Path_362-2" data-name="Path 362" d="M78.864,159.971l.579-.309v1.094a1.774,1.774,0,0,1-.171.739,1.048,1.048,0,0,1-.409.487.321.321,0,0,1-.409-.05.822.822,0,0,1-.17-.558v-1.094Z" transform="translate(3543.384 -1149.554)" fill="#333"/>
    <path id="Path_363-2" data-name="Path 363" d="M77.37,161.926l-.407-.766-.407,1.2Z" transform="translate(3543.909 -1150.009)" fill="#333"/>
    <path id="Path_364-2" data-name="Path 364" d="M77.1,162.853l.091-.048v1.758l-.091.049-.091.048V162.9Z" transform="translate(3543.771 -1150.509)" fill="#333"/>
    <path id="Path_365-2" data-name="Path 365" d="M76.052,162.629l-.407-.765-.407,1.2Z" transform="translate(3544.31 -1150.223)" fill="#333"/>
    <path id="Path_366-2" data-name="Path 366" d="M75.783,163.556l.091-.048v1.758l-.091.048-.091.048V163.6Z" transform="translate(3544.171 -1150.723)" fill="#333"/>
    <path id="Path_367-2" data-name="Path 367" d="M75.433,166.428v-.144l1.428-.762v.286l-1.428.762Z" transform="translate(3544.25 -1151.335)" fill="#333"/>
    <path id="Path_368-2" data-name="Path 368" d="M72.581,164.318a.4.4,0,0,0-.162.191c.392-1.654,1.481-2.235,1.873-1a.12.12,0,0,0-.162-.017.407.407,0,0,0-.194.329c0-.125-.086-.18-.194-.122a.409.409,0,0,0-.194.329c0-.125-.086-.18-.193-.123a.406.406,0,0,0-.194.329c0-.125-.087-.179-.194-.122a.407.407,0,0,0-.193.329C72.775,164.316,72.688,164.261,72.581,164.318Z" transform="translate(3545.167 -1150.522)" fill="#333"/>
    <path id="Path_369-2" data-name="Path 369" d="M73.736,164.787l.065-.035v1.758s0,.24.187.14c.143-.076.159-.324.159-.324l.132-.071s-.042.434-.282.562c-.328.175-.328-.237-.328-.237v-1.758Z" transform="translate(3544.786 -1151.101)" fill="#333"/>
    <path id="Path_370-2" data-name="Path 370" d="M59.675,160.16l-1.456-.776v.323l1.456.777Z" transform="translate(3549.482 -1149.469)" fill="#333"/>
    <path id="Path_371-2" data-name="Path 371" d="M59.675,159.255l-1.456-.776v.106l1.456.776Z" transform="translate(3549.482 -1149.194)" fill="#333"/>
    <path id="Path_372-2" data-name="Path 372" d="M59.7,161.659l-1.484-.791v.107l1.484.791Z" transform="translate(3549.482 -1149.92)" fill="#333"/>
    <path id="Path_373-2" data-name="Path 373" d="M59.675,158.435l-1.456-.776v.237l1.456.776Z" transform="translate(3549.482 -1148.945)" fill="#333"/>
    <path id="Path_374-2" data-name="Path 374" d="M59.675,163.268l-1.456-.776v.176l1.456.776Z" transform="translate(3549.482 -1150.414)" fill="#333"/>
    <path id="Path_375-2" data-name="Path 375" d="M59.675,162.5l-1.456-.776v.177l1.456.776Z" transform="translate(3549.482 -1150.181)" fill="#333"/>
    <path id="Path_376-2" data-name="Path 376" d="M59.675,156.875,58.22,156.1v.277l1.456.776Z" transform="translate(3549.482 -1148.471)" fill="#333"/>
    <path id="Path_377-2" data-name="Path 377" d="M58.22,155.359l1.956,1.044v-.532l-1.956-1.043Z" transform="translate(3549.482 -1148.084)" fill="#333"/>
    <path id="Path_378-2" data-name="Path 378" d="M58.22,157.078l1.956,1.044v-.177L58.22,156.9Z" transform="translate(3549.482 -1148.715)" fill="#333"/>
    <path id="Path_379-2" data-name="Path 379" d="M58.22,160.384l1.956,1.044v-.106l-1.956-1.043Z" transform="translate(3549.482 -1149.741)" fill="#333"/>
    <path id="Path_380-2" data-name="Path 380" d="M58.22,163.619l1.956,1.043v-.106l-1.956-1.043Z" transform="translate(3549.482 -1150.724)" fill="#333"/>
    <path id="Path_381-2" data-name="Path 381" d="M74.772,153.84v2.386l.427-.574.327.163.34-.315.389-.083.378-.491.326.107v-2.36Z" transform="translate(3544.451 -1147.43)" fill="#666"/>
    <path id="Path_353-3" data-name="Path 353" d="M69.7,165.345v-10.4l9.026-4.814v10.4Z" transform="translate(3550.296 -1159.569)" fill="#f93"/>
    <path id="Path_354-3" data-name="Path 354" d="M70.071,165.1l8.51-4.539v-9.81l-8.51,4.539Z" transform="translate(3550.183 -1159.756)" fill="#fc9"/>
    <path id="Path_355-3" data-name="Path 355" d="M56.734,160.531v-10.4l9.026,4.814v10.4Z" transform="translate(3554.237 -1159.569)" fill="#f93"/>
    <path id="Path_356-3" data-name="Path 356" d="M65.615,165.1v-9.811l-8.51-4.539v9.81Z" transform="translate(3554.124 -1159.756)" fill="#fc9"/>
    <path id="Path_357-3" data-name="Path 357" d="M65.76,143.217l9.026,4.814v0l-9.026,4.814-9.026-4.814v0Z" transform="translate(3554.237 -1157.466)" fill="#fc9"/>
    <path id="Path_358-3" data-name="Path 358" d="M66.049,152.649l8.365-4.462-8.365-4.462-8.365,4.462Z" transform="translate(3553.948 -1157.62)" fill="#f93"/>
    <path id="Path_359-3" data-name="Path 359" d="M70.883,151.713l2.187-1.167-8.923-4.873-2.172,1.159Z" transform="translate(3552.644 -1158.212)" fill="#666"/>
    <path id="Path_360-3" data-name="Path 360" d="M78.49,164.636a.63.63,0,0,0,.245-.291,1.066,1.066,0,0,0,.1-.442v-.655l.085-.046.086-.045v.655a.49.49,0,0,0,.1.333.192.192,0,0,0,.245.03l.016-.008v.078l-.448.239-.448.239v-.079Z" transform="translate(3547.63 -1163.526)" fill="#333"/>
    <path id="Path_361-3" data-name="Path 361" d="M79.117,162.994h0Z" transform="translate(3547.435 -1163.476)" fill="#333"/>
    <path id="Path_362-3" data-name="Path 362" d="M78.864,159.971l.579-.309v1.094a1.774,1.774,0,0,1-.171.739,1.048,1.048,0,0,1-.409.487.321.321,0,0,1-.409-.05.822.822,0,0,1-.17-.558v-1.094Z" transform="translate(3547.687 -1162.464)" fill="#333"/>
    <path id="Path_363-3" data-name="Path 363" d="M77.37,161.926l-.407-.766-.407,1.2Z" transform="translate(3548.213 -1162.919)" fill="#333"/>
    <path id="Path_364-3" data-name="Path 364" d="M77.1,162.853l.091-.048v1.758l-.091.049-.091.048V162.9Z" transform="translate(3548.074 -1163.419)" fill="#333"/>
    <path id="Path_365-3" data-name="Path 365" d="M76.052,162.629l-.407-.765-.407,1.2Z" transform="translate(3548.613 -1163.133)" fill="#333"/>
    <path id="Path_366-3" data-name="Path 366" d="M75.783,163.556l.091-.048v1.758l-.091.048-.091.048V163.6Z" transform="translate(3548.475 -1163.633)" fill="#333"/>
    <path id="Path_367-3" data-name="Path 367" d="M75.433,166.428v-.144l1.428-.762v.286l-1.428.762Z" transform="translate(3548.554 -1164.245)" fill="#333"/>
    <path id="Path_368-3" data-name="Path 368" d="M72.581,164.318a.4.4,0,0,0-.162.191c.392-1.654,1.481-2.235,1.873-1a.12.12,0,0,0-.162-.017.407.407,0,0,0-.194.329c0-.125-.086-.18-.194-.122a.409.409,0,0,0-.194.329c0-.125-.086-.18-.193-.123a.406.406,0,0,0-.194.329c0-.125-.087-.179-.194-.122a.407.407,0,0,0-.193.329C72.775,164.316,72.688,164.261,72.581,164.318Z" transform="translate(3549.47 -1163.432)" fill="#333"/>
    <path id="Path_369-3" data-name="Path 369" d="M73.736,164.787l.065-.035v1.758s0,.24.187.14c.143-.076.159-.324.159-.324l.132-.071s-.042.434-.282.562c-.328.175-.328-.237-.328-.237v-1.758Z" transform="translate(3549.09 -1164.011)" fill="#333"/>
    <path id="Path_370-3" data-name="Path 370" d="M59.675,160.16l-1.456-.776v.323l1.456.777Z" transform="translate(3553.785 -1162.379)" fill="#333"/>
    <path id="Path_371-3" data-name="Path 371" d="M59.675,159.255l-1.456-.776v.106l1.456.776Z" transform="translate(3553.785 -1162.104)" fill="#333"/>
    <path id="Path_372-3" data-name="Path 372" d="M59.7,161.659l-1.484-.791v.107l1.484.791Z" transform="translate(3553.785 -1162.83)" fill="#333"/>
    <path id="Path_373-3" data-name="Path 373" d="M59.675,158.435l-1.456-.776v.237l1.456.776Z" transform="translate(3553.785 -1161.855)" fill="#333"/>
    <path id="Path_374-3" data-name="Path 374" d="M59.675,163.268l-1.456-.776v.176l1.456.776Z" transform="translate(3553.785 -1163.324)" fill="#333"/>
    <path id="Path_375-3" data-name="Path 375" d="M59.675,162.5l-1.456-.776v.177l1.456.776Z" transform="translate(3553.785 -1163.091)" fill="#333"/>
    <path id="Path_376-3" data-name="Path 376" d="M59.675,156.875,58.22,156.1v.277l1.456.776Z" transform="translate(3553.785 -1161.381)" fill="#333"/>
    <path id="Path_377-3" data-name="Path 377" d="M58.22,155.359l1.956,1.044v-.532l-1.956-1.043Z" transform="translate(3553.785 -1160.994)" fill="#333"/>
    <path id="Path_378-3" data-name="Path 378" d="M58.22,157.078l1.956,1.044v-.177L58.22,156.9Z" transform="translate(3553.785 -1161.625)" fill="#333"/>
    <path id="Path_379-3" data-name="Path 379" d="M58.22,160.384l1.956,1.044v-.106l-1.956-1.043Z" transform="translate(3553.785 -1162.651)" fill="#333"/>
    <path id="Path_380-3" data-name="Path 380" d="M58.22,163.619l1.956,1.043v-.106l-1.956-1.043Z" transform="translate(3553.785 -1163.635)" fill="#333"/>
    <path id="Path_381-3" data-name="Path 381" d="M74.772,153.84v2.386l.427-.574.327.163.34-.315.389-.083.378-.491.326.107v-2.36Z" transform="translate(3548.755 -1160.34)" fill="#666"/>
  </g>
</svg>
